# File created by Blade
# Date/Time:  Wed Apr 08 17:39:35 2015
# Frame Rate: 120.000 fps
#------------------------------------------------------
:FULLY-SPECIFIED
:DEGREES
1961
root 9.512261 36.953101 3.773107 84.436217 -75.637778 -418.123790
Spine -24.888078 -7.864128 1.677275
Head 41.844471 -5.580117 18.980190
LeftShoulder -7.962667 20.994933 15.062458
LeftArm 23.730078 23.041522 -73.912096
LeftForeArm 16.779568 -0.000000 23.255171
LeftHand -11.809531 0.000000 -11.466831
LeftHandThumb1 -26.253704 0.000000 33.147579
RightShoulder -40.204723 -50.982134 23.487499
RightArm 55.112200 -19.763151 48.825695
RightForeArm 2.048858 0.000000 15.419973
RightHand -2.058103 0.000000 23.928747
RightHandThumb1 -24.326973 -0.000000 -32.862282
LeftUpLeg -37.823050 22.182062 -8.900929
LeftLeg 18.667116 -0.000000 -0.000000
LeftFoot -16.848664 6.682316 -11.516083
LeftToeBase 15.289046 -0.000000 -0.000000
RightUpLeg -93.008041 -14.825497 26.136484
RightLeg 70.378515 -0.000000 -0.000000
RightFoot 32.769644 -10.614740 35.926506
RightToeBase 18.186208 -0.000000 -0.000000
1962
root 9.507059 36.972689 3.757777 83.534489 -75.375556 -417.150647
Spine -25.026035 -7.881430 1.680933
Head 41.837385 -5.657931 19.023067
LeftShoulder -7.980331 20.961520 15.088016
LeftArm 23.720062 22.960436 -73.979399
LeftForeArm 16.858120 -0.000000 23.430813
LeftHand -11.768101 -0.000000 -11.514492
LeftHandThumb1 -26.253704 0.000000 33.147579
RightShoulder -40.276410 -50.989719 23.561602
RightArm 54.997452 -19.773886 48.876657
RightForeArm 2.067742 -0.000000 15.272046
RightHand -2.338889 -0.000000 24.206182
RightHandThumb1 -24.326973 -0.000000 -32.862282
LeftUpLeg -38.001766 22.303752 -8.804733
LeftLeg 18.845261 -0.000000 -0.000000
LeftFoot -16.796451 6.005487 -11.758418
LeftToeBase 15.610937 -0.000000 -0.000000
RightUpLeg -93.105139 -14.975700 25.909961
RightLeg 71.176266 -0.000000 -0.000000
RightFoot 33.223429 -11.004711 35.662198
RightToeBase 20.059049 -0.000000 -0.000000
1963
root 9.501856 36.994681 3.739111 82.618139 -75.064472 -416.155467
Spine -25.170571 -7.912091 1.723840
Head 41.837649 -5.694489 19.084525
LeftShoulder -7.998362 20.962944 15.090055
LeftArm 23.724116 22.848814 -74.034920
LeftForeArm 16.819437 0.000000 23.616372
LeftHand -11.698248 -0.000000 -11.536512
LeftHandThumb1 -26.253704 0.000000 33.147579
RightShoulder -40.347442 -50.994149 23.626259
RightArm 54.923010 -19.805571 48.900464
RightForeArm 2.004228 -0.000000 15.090718
RightHand -2.566683 -0.000000 24.478468
RightHandThumb1 -24.326973 -0.000000 -32.862282
LeftUpLeg -38.185640 22.354661 -8.626993
LeftLeg 19.042873 -0.000000 -0.000000
LeftFoot -16.697026 5.362874 -11.941472
LeftToeBase 15.860105 -0.000000 -0.000000
RightUpLeg -93.152596 -15.127420 25.606329
RightLeg 71.929166 -0.000000 -0.000000
RightFoot 33.647357 -11.187066 35.452528
RightToeBase 21.815502 -0.000000 -0.000000
1964
root 9.497290 37.016462 3.718761 81.699183 -74.761854 -415.158017
Spine -25.312617 -7.923270 1.712702
Head 41.818580 -5.794479 19.141429
LeftShoulder -7.968251 20.906048 15.154824
LeftArm 23.665842 22.696290 -74.168422
LeftForeArm 16.839764 -0.000000 23.769152
LeftHand -11.610564 -0.000000 -11.603206
LeftHandThumb1 -26.253704 0.000000 33.147579
RightShoulder -40.437642 -50.994183 23.712205
RightArm 54.853888 -19.848453 48.935293
RightForeArm 1.886165 -0.000000 14.924497
RightHand -2.834415 -0.000000 24.742834
RightHandThumb1 -24.326973 -0.000000 -32.862282
LeftUpLeg -38.341377 22.325080 -8.407235
LeftLeg 19.227897 -0.000000 -0.000000
LeftFoot -16.571727 4.741760 -12.144032
LeftToeBase 16.196362 -0.000000 -0.000000
RightUpLeg -93.162323 -15.274019 25.180331
RightLeg 72.644265 -0.000000 -0.000000
RightFoot 34.113515 -11.277973 35.442306
RightToeBase 22.842096 -0.000000 -0.000000
1965
root 9.492367 37.039105 3.699634 80.867463 -74.477192 -414.217826
Spine -25.500934 -7.930038 1.688567
Head 41.808884 -5.860798 19.165774
LeftShoulder -7.977578 20.925659 15.165786
LeftArm 23.673222 22.709909 -74.132423
LeftForeArm 16.696211 0.000000 24.027538
LeftHand -11.650027 -0.000000 -11.495780
LeftHandThumb1 -26.253704 0.000000 33.147579
RightShoulder -40.537969 -51.038260 23.814166
RightArm 54.803181 -19.874436 48.963512
RightForeArm 1.673660 -0.000000 14.788994
RightHand -2.981559 -0.000000 24.892991
RightHandThumb1 -24.326973 -0.000000 -32.862282
LeftUpLeg -38.473845 22.211568 -8.159971
LeftLeg 19.361814 -0.000000 -0.000000
LeftFoot -16.413340 4.183681 -12.304854
LeftToeBase 16.359628 -0.000000 -0.000000
RightUpLeg -93.175448 -15.401982 24.706801
RightLeg 73.291386 -0.000000 -0.000000
RightFoot 34.513102 -11.248770 35.133418
RightToeBase 25.680463 -0.000000 -0.000000
1966
root 9.484867 37.059599 3.678316 79.907163 -74.203018 -413.237274
Spine -25.572114 -7.966618 1.599652
Head 41.776212 -5.932002 19.261633
LeftShoulder -7.971450 20.905007 15.225894
LeftArm 23.644279 22.639281 -74.191183
LeftForeArm 16.593255 -0.000000 24.211847
LeftHand -11.654132 -0.000000 -11.350131
LeftHandThumb1 -26.253704 0.000000 33.147579
RightShoulder -40.551255 -51.050041 23.868794
RightArm 54.775157 -19.962887 48.929612
RightForeArm 1.482630 -0.000000 14.612384
RightHand -3.128992 -0.000000 25.083130
RightHandThumb1 -24.326973 -0.000000 -32.862282
LeftUpLeg -38.520713 22.124979 -7.903160
LeftLeg 19.514962 -0.000000 -0.000000
LeftFoot -16.234097 3.562325 -12.398536
LeftToeBase 16.510365 -0.000000 -0.000000
RightUpLeg -93.074889 -15.562766 24.083819
RightLeg 73.942986 -0.000000 -0.000000
RightFoot 34.813611 -11.398886 35.050387
RightToeBase 27.300223 -0.000000 -0.000000
1967
root 9.472606 37.078395 3.655210 79.086866 -73.912602 -412.467039
Spine -25.575095 -7.958820 1.510460
Head 41.743812 -6.001954 19.349330
LeftShoulder -7.964953 20.920177 15.270227
LeftArm 23.680101 22.574442 -74.193138
LeftForeArm 16.516359 0.000000 24.368262
LeftHand -11.636712 -0.000000 -11.324413
LeftHandThumb1 -26.253704 0.000000 33.147579
RightShoulder -40.655191 -51.108318 24.030682
RightArm 54.860141 -20.012959 48.812888
RightForeArm 1.314957 0.000000 14.431748
RightHand -3.350187 -0.000000 25.109861
RightHandThumb1 -24.326973 -0.000000 -32.862282
LeftUpLeg -38.596619 22.279119 -7.707610
LeftLeg 19.774949 -0.000000 -0.000000
LeftFoot -16.072920 2.762015 -12.446656
LeftToeBase 16.685137 -0.000000 -0.000000
RightUpLeg -92.867181 -15.713498 23.438568
RightLeg 74.546138 -0.000000 -0.000000
RightFoot 35.080341 -11.590625 34.689864
RightToeBase 27.774475 -0.000000 -0.000000
1968
root 9.460719 37.099471 3.631286 78.378074 -73.654877 -411.771717
Spine -25.630703 -7.924303 1.368294
Head 41.725213 -6.051097 19.492069
LeftShoulder -7.954666 20.894709 15.341181
LeftArm 23.651551 22.549994 -74.209346
LeftForeArm 16.363430 -0.000000 24.519803
LeftHand -11.644216 -0.000000 -11.181905
LeftHandThumb1 -26.253704 0.000000 33.147579
RightShoulder -40.642529 -51.112286 24.077140
RightArm 54.838752 -20.128781 48.771151
RightForeArm 1.197652 -0.000000 14.230041
RightHand -3.468466 -0.000000 25.412111
RightHandThumb1 -24.326973 -0.000000 -32.862282
LeftUpLeg -38.633744 22.372092 -7.495426
LeftLeg 19.923940 -0.000000 -0.000000
LeftFoot -15.917830 2.007531 -12.625132
LeftToeBase 16.860266 -0.000000 -0.000000
RightUpLeg -92.653040 -15.817116 22.704353
RightLeg 75.075435 -0.000000 -0.000000
RightFoot 35.278129 -11.615602 34.136713
RightToeBase 28.373196 -0.000000 -0.000000
1969
root 9.448431 37.123296 3.602450 77.575491 -73.345292 -410.968008
Spine -25.705957 -7.931811 1.259702
Head 41.745699 -6.089003 19.606035
LeftShoulder -7.941535 20.926434 15.376839
LeftArm 23.684983 22.510188 -74.168212
LeftForeArm 16.266466 -0.000000 24.658926
LeftHand -11.694434 -0.000000 -11.098641
LeftHandThumb1 -26.253704 0.000000 33.147579
RightShoulder -40.681072 -51.133916 24.177893
RightArm 54.859368 -20.195842 48.736722
RightForeArm 1.157815 -0.000000 14.009614
RightHand -3.652241 -0.000000 25.516355
RightHandThumb1 -24.326973 -0.000000 -32.862282
LeftUpLeg -38.674880 22.382156 -7.196172
LeftLeg 20.088722 -0.000000 -0.000000
LeftFoot -15.733763 1.247375 -12.770732
LeftToeBase 17.043880 -0.000000 -0.000000
RightUpLeg -92.400358 -15.953186 21.921171
RightLeg 75.510620 -0.000000 -0.000000
RightFoot 35.423035 -11.646212 33.779283
RightToeBase 29.196843 -0.000000 -0.000000
1970
root 9.436058 37.145677 3.571913 76.726303 -73.013127 -410.151407
Spine -25.727644 -7.995815 1.182284
Head 41.771291 -6.047205 19.727075
LeftShoulder -7.976167 20.913857 15.407729
LeftArm 23.691634 22.517723 -74.125599
LeftForeArm 16.176723 0.000000 24.743540
LeftHand -11.650846 -0.000000 -11.002124
LeftHandThumb1 -26.253704 0.000000 33.147579
RightShoulder -40.668769 -51.142158 24.207227
RightArm 54.913885 -20.267964 48.709717
RightForeArm 1.067931 -0.000000 13.764647
RightHand -3.838119 -0.000000 25.492680
RightHandThumb1 -24.326973 -0.000000 -32.862282
LeftUpLeg -38.697442 22.405244 -6.875381
LeftLeg 20.290549 -0.000000 -0.000000
LeftFoot -15.560181 0.400327 -13.036128
LeftToeBase 17.576583 -0.000000 -0.000000
RightUpLeg -92.080159 -16.115935 21.051226
RightLeg 75.881780 -0.000000 -0.000000
RightFoot 35.554943 -11.611005 33.523062
RightToeBase 29.358946 -0.000000 -0.000000
1971
root 9.422008 37.168673 3.537719 75.807570 -72.654152 -409.291112
Spine -25.715712 -8.033848 1.063060
Head 41.771787 -6.100923 19.853040
LeftShoulder -7.958678 20.911961 15.458766
LeftArm 23.757808 22.576150 -74.020200
LeftForeArm 16.068181 -0.000000 24.805126
LeftHand -11.649496 -0.000000 -10.926555
LeftHandThumb1 -26.253704 0.000000 33.147579
RightShoulder -40.715397 -51.137882 24.305350
RightArm 54.926315 -20.280733 48.781129
RightForeArm 0.957457 0.000000 13.544944
RightHand -4.049760 -0.000000 25.390905
RightHandThumb1 -24.326973 -0.000000 -32.862282
LeftUpLeg -38.715136 22.450851 -6.536837
LeftLeg 20.511838 -0.000000 -0.000000
LeftFoot -15.328718 -0.456790 -13.206149
LeftToeBase 17.224759 -0.000000 -0.000000
RightUpLeg -91.703615 -16.318908 20.171149
RightLeg 76.165953 -0.000000 -0.000000
RightFoot 35.622650 -11.602488 33.179786
RightToeBase 29.590165 -0.000000 -0.000000
